<svg width="20" height="20" viewBox="0 0 20 20" fill="none" xmlns="http://www.w3.org/2000/svg">
<g clip-path="url(#clip0_47_106)">
<path d="M1.66666 15C1.66666 15.663 1.93005 16.2989 2.39889 16.7678C2.86773 17.2366 3.50362 17.5 4.16666 17.5C4.8297 17.5 5.46558 17.2366 5.93442 16.7678C6.40326 16.2989 6.66666 15.663 6.66666 15C6.66666 14.337 6.40326 13.7011 5.93442 13.2322C5.46558 12.7634 4.8297 12.5 4.16666 12.5C3.50362 12.5 2.86773 12.7634 2.39889 13.2322C1.93005 13.7011 1.66666 14.337 1.66666 15Z" stroke="#FFA953" stroke-width="2" stroke-linecap="round" stroke-linejoin="round"/>
<path d="M13.3333 15C13.3333 15.663 13.5967 16.2989 14.0656 16.7678C14.5344 17.2366 15.1703 17.5 15.8333 17.5C16.4964 17.5 17.1323 17.2366 17.6011 16.7678C18.07 16.2989 18.3333 15.663 18.3333 15C18.3333 14.337 18.07 13.7011 17.6011 13.2322C17.1323 12.7634 16.4964 12.5 15.8333 12.5C15.1703 12.5 14.5344 12.7634 14.0656 13.2322C13.5967 13.7011 13.3333 14.337 13.3333 15Z" stroke="#FFA953" stroke-width="2" stroke-linecap="round" stroke-linejoin="round"/>
<path d="M10 15.8333V12.5L7.5 10L11.6667 6.66667L13.3333 9.16667H15.8333" stroke="#FFA953" stroke-width="2" stroke-linecap="round" stroke-linejoin="round"/>
<path d="M13.3333 4.16666C13.3333 4.38768 13.4211 4.59964 13.5774 4.75592C13.7337 4.9122 13.9457 4.99999 14.1667 4.99999C14.3877 4.99999 14.5997 4.9122 14.7559 4.75592C14.9122 4.59964 15 4.38768 15 4.16666C15 3.94565 14.9122 3.73369 14.7559 3.57741C14.5997 3.42113 14.3877 3.33333 14.1667 3.33333C13.9457 3.33333 13.7337 3.42113 13.5774 3.57741C13.4211 3.73369 13.3333 3.94565 13.3333 4.16666Z" stroke="#FFA953" stroke-width="2" stroke-linecap="round" stroke-linejoin="round"/>
</g>
<defs>
<clipPath id="clip0_47_106">
<rect width="20" height="20" fill="white"/>
</clipPath>
</defs>
</svg>
