<svg width="18" height="18" viewBox="0 0 18 18" fill="none" xmlns="http://www.w3.org/2000/svg">
<g clip-path="url(#clip0_45_37)">
<path d="M3.33333 5.45835C3.33333 5.08263 3.48258 4.7223 3.74826 4.45662C4.01394 4.19094 4.37427 4.04169 4.74999 4.04169H13.25C13.6257 4.04169 13.9861 4.19094 14.2517 4.45662C14.5174 4.7223 14.6667 5.08263 14.6667 5.45835V13.9584C14.6667 14.3341 14.5174 14.6944 14.2517 14.9601C13.9861 15.2258 13.6257 15.375 13.25 15.375H4.74999C4.37427 15.375 4.01394 15.2258 3.74826 14.9601C3.48258 14.6944 3.33333 14.3341 3.33333 13.9584V5.45835Z" stroke="#666666" stroke-width="2" stroke-linecap="round" stroke-linejoin="round"/>
<path d="M11.8333 2.625V5.45833" stroke="#666666" stroke-width="2" stroke-linecap="round" stroke-linejoin="round"/>
<path d="M6.16667 2.625V5.45833" stroke="#666666" stroke-width="2" stroke-linecap="round" stroke-linejoin="round"/>
<path d="M3.33333 8.29169H14.6667" stroke="#666666" stroke-width="2" stroke-linecap="round" stroke-linejoin="round"/>
<path d="M8.29167 11.125H9.00001" stroke="#666666" stroke-width="2" stroke-linecap="round" stroke-linejoin="round"/>
<path d="M9 11.125V13.25" stroke="#666666" stroke-width="2" stroke-linecap="round" stroke-linejoin="round"/>
</g>
<defs>
<clipPath id="clip0_45_37">
<rect width="17" height="17" fill="white" transform="translate(0.5 0.5)"/>
</clipPath>
</defs>
</svg>
