<svg width="20" height="20" viewBox="0 0 20 20" fill="none" xmlns="http://www.w3.org/2000/svg">
<g clip-path="url(#clip0_47_102)">
<path d="M10 2.5C11.5983 2.5 12.9333 3.625 13.2583 5.12583C14.1118 4.89487 15.022 5.0124 15.7888 5.45257C16.5556 5.89273 17.1161 6.61947 17.3471 7.47292C17.578 8.32636 17.4605 9.2366 17.0203 10.0034C16.5802 10.7702 15.8534 11.3307 15 11.5617V17.5H5V11.5617C4.57742 11.4472 4.18152 11.2506 3.83491 10.9831C3.4883 10.7157 3.19776 10.3826 2.97989 10.0028C2.76202 9.62305 2.62109 9.2041 2.56513 8.76988C2.50917 8.33566 2.53928 7.89467 2.65375 7.47208C2.76822 7.0495 2.9648 6.6536 3.23227 6.30699C3.49974 5.96038 3.83286 5.66985 4.21262 5.45198C4.59237 5.23411 5.01132 5.09317 5.44554 5.03721C5.87976 4.98125 6.32075 5.01136 6.74333 5.12583C6.90486 4.38214 7.31601 3.71611 7.90846 3.23842C8.5009 2.76074 9.23896 2.50016 10 2.5Z" stroke="#FFA953" stroke-width="2" stroke-linecap="round" stroke-linejoin="round"/>
<path d="M5.13417 14.1742L15 14.1667" stroke="#FFA953" stroke-width="2" stroke-linecap="round" stroke-linejoin="round"/>
</g>
<defs>
<clipPath id="clip0_47_102">
<rect width="20" height="20" fill="white"/>
</clipPath>
</defs>
</svg>
