<svg width="20" height="20" viewBox="0 0 20 20" fill="none" xmlns="http://www.w3.org/2000/svg">
<g clip-path="url(#clip0_47_90)">
<path d="M9.99997 8.33333L7.16914 5.46666C6.84678 5.13875 6.66614 4.69733 6.66614 4.2375C6.66614 3.77767 6.84678 3.33624 7.16914 3.00833C7.32739 2.84707 7.5162 2.71898 7.72453 2.63154C7.93286 2.54409 8.15654 2.49905 8.38247 2.49905C8.60841 2.49905 8.83208 2.54409 9.04041 2.63154C9.24874 2.71898 9.43755 2.84707 9.59581 3.00833L9.99997 3.33333L10.4041 3.00833C10.5624 2.84707 10.7512 2.71898 10.9595 2.63154C11.1679 2.54409 11.3915 2.49905 11.6175 2.49905C11.8434 2.49905 12.0671 2.54409 12.2754 2.63154C12.4837 2.71898 12.6726 2.84707 12.8308 3.00833C13.1532 3.33624 13.3338 3.77767 13.3338 4.2375C13.3338 4.69733 13.1532 5.13875 12.8308 5.46666L9.99997 8.33333Z" stroke="#FFA953" stroke-width="2" stroke-linecap="round" stroke-linejoin="round"/>
<path d="M9.99997 11.6667L7.16914 14.5333C6.84678 14.8613 6.66614 15.3027 6.66614 15.7625C6.66614 16.2223 6.84678 16.6638 7.16914 16.9917C7.32739 17.1529 7.5162 17.281 7.72453 17.3685C7.93286 17.4559 8.15654 17.5009 8.38247 17.5009C8.60841 17.5009 8.83208 17.4559 9.04041 17.3685C9.24874 17.281 9.43755 17.1529 9.59581 16.9917L9.99997 16.6667L10.4041 16.9917C10.5624 17.1529 10.7512 17.281 10.9595 17.3685C11.1679 17.4559 11.3915 17.5009 11.6175 17.5009C11.8434 17.5009 12.0671 17.4559 12.2754 17.3685C12.4837 17.281 12.6726 17.1529 12.8308 16.9917C13.1532 16.6638 13.3338 16.2223 13.3338 15.7625C13.3338 15.3027 13.1532 14.8613 12.8308 14.5333L9.99997 11.6667Z" stroke="#FFA953" stroke-width="2" stroke-linecap="round" stroke-linejoin="round"/>
<path d="M11.6667 10L14.5334 7.16917C14.8613 6.84681 15.3027 6.66617 15.7625 6.66617C16.2224 6.66617 16.6638 6.84681 16.9917 7.16917C17.1529 7.32742 17.281 7.51623 17.3685 7.72456C17.4559 7.93289 17.501 8.15657 17.501 8.3825C17.501 8.60844 17.4559 8.83211 17.3685 9.04044C17.281 9.24877 17.1529 9.43759 16.9917 9.59584L16.6667 10L16.9917 10.4042C17.1529 10.5624 17.281 10.7512 17.3685 10.9596C17.4559 11.1679 17.501 11.3916 17.501 11.6175C17.501 11.8434 17.4559 12.0671 17.3685 12.2754C17.281 12.4838 17.1529 12.6726 16.9917 12.8308C16.6638 13.1532 16.2224 13.3338 15.7625 13.3338C15.3027 13.3338 14.8613 13.1532 14.5334 12.8308L11.6667 10Z" stroke="#FFA953" stroke-width="2" stroke-linecap="round" stroke-linejoin="round"/>
<path d="M8.33336 10L5.46669 7.16917C5.13878 6.84681 4.69736 6.66617 4.23753 6.66617C3.7777 6.66617 3.33627 6.84681 3.00836 7.16917C2.8471 7.32742 2.71901 7.51623 2.63157 7.72456C2.54412 7.93289 2.49908 8.15657 2.49908 8.3825C2.49908 8.60844 2.54412 8.83211 2.63157 9.04044C2.71901 9.24877 2.8471 9.43759 3.00836 9.59584L3.33336 10L3.00836 10.4042C2.8471 10.5624 2.71901 10.7512 2.63157 10.9596C2.54412 11.1679 2.49908 11.3916 2.49908 11.6175C2.49908 11.8434 2.54412 12.0671 2.63157 12.2754C2.71901 12.4838 2.8471 12.6726 3.00836 12.8308C3.33627 13.1532 3.7777 13.3338 4.23753 13.3338C4.69736 13.3338 5.13878 13.1532 5.46669 12.8308L8.33336 10Z" stroke="#FFA953" stroke-width="2" stroke-linecap="round" stroke-linejoin="round"/>
</g>
<defs>
<clipPath id="clip0_47_90">
<rect width="20" height="20" fill="white"/>
</clipPath>
</defs>
</svg>
