<svg width="40" height="40" viewBox="0 0 40 40" fill="none" xmlns="http://www.w3.org/2000/svg">
<path d="M16.875 8.75C19.0299 8.75 21.0965 9.60602 22.6202 11.1298C24.144 12.6535 25 14.7201 25 16.875C25 18.8875 24.2625 20.7375 23.05 22.1625L23.3875 22.5H24.375L30.625 28.75L28.75 30.625L22.5 24.375V23.3875L22.1625 23.05C20.7375 24.2625 18.8875 25 16.875 25C14.7201 25 12.6535 24.144 11.1298 22.6202C9.60602 21.0965 8.75 19.0299 8.75 16.875C8.75 14.7201 9.60602 12.6535 11.1298 11.1298C12.6535 9.60602 14.7201 8.75 16.875 8.75ZM16.875 11.25C13.75 11.25 11.25 13.75 11.25 16.875C11.25 20 13.75 22.5 16.875 22.5C20 22.5 22.5 20 22.5 16.875C22.5 13.75 20 11.25 16.875 11.25Z" fill="#505050"/>
</svg>
