<svg width="48" height="42" viewBox="0 0 48 42" fill="none" xmlns="http://www.w3.org/2000/svg">
<path d="M17.3738 34.9596L26.6262 25.7071C27.0168 25.3166 27.6499 25.3166 28.0405 25.7071L37.2929 34.9596C37.6834 35.3501 37.6834 35.9833 37.2929 36.3738L33.3738 40.2929C32.9833 40.6834 32.3501 40.6834 31.9596 40.2929L28.0405 36.3738C27.6499 35.9832 27.0168 35.9833 26.6262 36.3738L22.7071 40.2929C22.3166 40.6834 21.6834 40.6834 21.2929 40.2929L17.3738 36.3738C16.9833 35.9832 16.9833 35.3501 17.3738 34.9596Z" fill="#FFA953" stroke="#FFA953" stroke-width="2"/>
<path d="M37.2929 7.04044L28.0404 16.2929C27.6499 16.6834 27.0167 16.6834 26.6262 16.2929L17.3738 7.04044C16.9832 6.64992 16.9832 6.01675 17.3738 5.62623L21.2929 1.70711C21.6834 1.31658 22.3166 1.31658 22.7071 1.70711L26.6262 5.62623C27.0168 6.01675 27.6499 6.01675 28.0404 5.62623L31.9596 1.70711C32.3501 1.31658 32.9832 1.31658 33.3738 1.70711L37.2929 5.62623C37.6834 6.01675 37.6834 6.64992 37.2929 7.04044Z" fill="#FFA953" stroke="#FFA953" stroke-width="2"/>
<path d="M9.37377 8.37379L21.2929 20.2929C21.6834 20.6834 21.6834 21.3166 21.2929 21.7071L9.37377 33.6262C8.98325 34.0168 8.35008 34.0168 7.95956 33.6262L2.70711 28.3738C2.31658 27.9833 2.31658 27.3501 2.70711 26.9596L7.95956 21.7071C8.35008 21.3166 8.35008 20.6834 7.95956 20.2929L2.70711 15.0405C2.31658 14.6499 2.31658 14.0168 2.70711 13.6262L7.95956 8.37379C8.35008 7.98327 8.98325 7.98327 9.37377 8.37379Z" stroke="#666666" stroke-width="3"/>
<path d="M41.2929 30.9596L32.0404 21.7071C31.6499 21.3166 31.6499 20.6834 32.0404 20.2929L41.2929 11.0405C41.6834 10.6499 42.3166 10.6499 42.7071 11.0405L46.6262 14.9596C47.0167 15.3501 47.0167 15.9833 46.6262 16.3738L42.7071 20.2929C42.3166 20.6834 42.3166 21.3166 42.7071 21.7071L46.6262 25.6262C47.0167 26.0168 47.0167 26.6499 46.6262 27.0405L42.7071 30.9596C42.3166 31.3501 41.6834 31.3501 41.2929 30.9596Z" fill="#FFA953" stroke="#FFA953" stroke-width="2"/>
</svg>
