<svg width="249" height="42" viewBox="0 0 249 42" fill="none" xmlns="http://www.w3.org/2000/svg">
<path d="M17.3738 34.9596L26.6262 25.7071C27.0168 25.3166 27.6499 25.3166 28.0405 25.7071L37.2929 34.9596C37.6834 35.3501 37.6834 35.9833 37.2929 36.3738L33.3738 40.2929C32.9833 40.6834 32.3501 40.6834 31.9596 40.2929L28.0405 36.3738C27.6499 35.9832 27.0168 35.9833 26.6262 36.3738L22.7071 40.2929C22.3166 40.6834 21.6834 40.6834 21.2929 40.2929L17.3738 36.3738C16.9833 35.9832 16.9833 35.3501 17.3738 34.9596Z" fill="#FFA953" stroke="#FFA953" stroke-width="2"/>
<path d="M37.2929 7.04044L28.0404 16.2929C27.6499 16.6834 27.0167 16.6834 26.6262 16.2929L17.3738 7.04044C16.9832 6.64992 16.9832 6.01675 17.3738 5.62623L21.2929 1.70711C21.6834 1.31658 22.3166 1.31658 22.7071 1.70711L26.6262 5.62623C27.0168 6.01675 27.6499 6.01675 28.0404 5.62623L31.9596 1.70711C32.3501 1.31658 32.9832 1.31658 33.3738 1.70711L37.2929 5.62623C37.6834 6.01675 37.6834 6.64992 37.2929 7.04044Z" fill="#FFA953" stroke="#FFA953" stroke-width="2"/>
<path d="M9.37377 8.37379L21.2929 20.2929C21.6834 20.6834 21.6834 21.3166 21.2929 21.7071L9.37377 33.6262C8.98325 34.0168 8.35008 34.0168 7.95956 33.6262L2.70711 28.3738C2.31658 27.9833 2.31658 27.3501 2.70711 26.9596L7.95956 21.7071C8.35008 21.3166 8.35008 20.6834 7.95956 20.2929L2.70711 15.0405C2.31658 14.6499 2.31658 14.0168 2.70711 13.6262L7.95956 8.37379C8.35008 7.98327 8.98325 7.98327 9.37377 8.37379Z" stroke="#666666" stroke-width="3"/>
<path d="M41.2929 30.9596L32.0404 21.7071C31.6499 21.3166 31.6499 20.6834 32.0404 20.2929L41.2929 11.0405C41.6834 10.6499 42.3166 10.6499 42.7071 11.0405L46.6262 14.9596C47.0167 15.3501 47.0167 15.9833 46.6262 16.3738L42.7071 20.2929C42.3166 20.6834 42.3166 21.3166 42.7071 21.7071L46.6262 25.6262C47.0167 26.0168 47.0167 26.6499 46.6262 27.0405L42.7071 30.9596C42.3166 31.3501 41.6834 31.3501 41.2929 30.9596Z" fill="#FFA953" stroke="#FFA953" stroke-width="2"/>
<path d="M64.5898 33.457C63.5482 31.8164 62.526 29.9805 61.5234 27.9492C60.5339 25.9049 59.6354 23.8086 58.8281 21.6602C58.0208 19.4987 57.3763 17.4219 56.8945 15.4297C56.4128 13.4245 56.1719 11.6341 56.1719 10.0586C56.1719 9.72005 56.2435 9.45312 56.3867 9.25781C56.6862 8.84115 57.0508 8.41146 57.4805 7.96875C57.9232 7.51302 58.444 7.03776 59.043 6.54297C59.2383 6.38672 59.4206 6.30859 59.5898 6.30859C59.7591 6.30859 59.9284 6.38672 60.0977 6.54297C60.7096 7.03776 61.2305 7.51302 61.6602 7.96875C62.0898 8.41146 62.4544 8.84115 62.7539 9.25781C62.8971 9.45312 62.9688 9.73958 62.9688 10.1172V10.0391C62.9688 11.1458 63.1185 12.4805 63.418 14.043C63.7305 15.5924 64.1536 17.2266 64.6875 18.9453C65.2344 20.651 65.8529 22.3112 66.543 23.9258C67.2461 25.5273 67.9948 26.9271 68.7891 28.125H68.9062C69.7786 26.9271 70.5664 25.5339 71.2695 23.9453C71.9857 22.3438 72.5977 20.6901 73.1055 18.9844C73.6263 17.2786 74.0234 15.651 74.2969 14.1016C74.5833 12.5391 74.7266 11.1914 74.7266 10.0586V10.1172C74.7266 9.73958 74.7917 9.45312 74.9219 9.25781C75.5469 8.39844 76.4062 7.49349 77.5 6.54297C77.7083 6.38672 77.8906 6.30859 78.0469 6.30859C78.1901 6.30859 78.3594 6.38672 78.5547 6.54297C79.1406 7.03776 79.6419 7.51302 80.0586 7.96875C80.4753 8.41146 80.8333 8.84115 81.1328 9.25781C81.263 9.46615 81.3281 9.74609 81.3281 10.0977C81.3281 11.2826 81.1589 12.6562 80.8203 14.2188C80.4948 15.7682 80.0456 17.4089 79.4727 19.1406C78.8997 20.8724 78.2487 22.6042 77.5195 24.3359C76.7904 26.0677 76.0221 27.7214 75.2148 29.2969C74.4076 30.8594 73.6003 32.2461 72.793 33.457C72.1159 34.4857 71.1914 35 70.0195 35H67.3242C66.1523 35 65.2409 34.4857 64.5898 33.457ZM56.1719 10.0391V10.0586V10.1172V10.0391ZM81.3281 10.0586V10.1172V10.0977V10.0586ZM93.3789 35.4883C91.1784 35.4883 89.2643 35.1367 87.6367 34.4336C86.0091 33.7174 84.7461 32.6107 83.8477 31.1133C82.9492 29.6159 82.5 27.6823 82.5 25.3125C82.5 21.7578 83.4115 19.069 85.2344 17.2461C87.0573 15.4232 89.4792 14.5117 92.5 14.5117C94.4661 14.5117 96.1263 14.8633 97.4805 15.5664C98.8477 16.2695 99.8828 17.2396 100.586 18.4766C101.302 19.7135 101.66 21.1263 101.66 22.7148C101.66 24.2643 101.263 25.3451 100.469 25.957C99.6745 26.569 98.5156 26.875 96.9922 26.875H88.6133C88.7174 28.2161 89.2057 29.2383 90.0781 29.9414C90.9635 30.6445 92.1615 30.9961 93.6719 30.9961C94.8698 30.9961 95.8268 30.8203 96.543 30.4688C97.2721 30.1042 97.7799 29.8177 98.0664 29.6094C98.3138 29.4271 98.5938 29.3424 98.9062 29.3555C99.1536 29.3555 99.5052 29.4076 99.9609 29.5117C100.43 29.6029 100.892 29.7786 101.348 30.0391C101.673 30.2083 101.836 30.4427 101.836 30.7422C101.836 30.9115 101.803 31.1523 101.738 31.4648C101.699 31.6471 101.634 31.9141 101.543 32.2656C101.452 32.6042 101.335 32.9232 101.191 33.2227C101.113 33.3659 100.99 33.5026 100.82 33.6328C100.56 33.8151 100.137 34.056 99.5508 34.3555C98.9779 34.6549 98.1901 34.9154 97.1875 35.1367C96.1849 35.3711 94.9154 35.4883 93.3789 35.4883ZM88.5742 22.8711H94.9414C95.6055 22.8711 95.9375 22.5651 95.9375 21.9531C95.9375 21.0286 95.6445 20.2539 95.0586 19.6289C94.4857 18.9909 93.6198 18.6719 92.4609 18.6719C91.1979 18.6719 90.2669 19.0755 89.668 19.8828C89.082 20.6901 88.7174 21.6862 88.5742 22.8711ZM111.523 35.4883C110.13 35.4883 108.971 35.3711 108.047 35.1367C107.135 34.9023 106.4 34.6224 105.84 34.2969C105.293 33.9583 104.863 33.6523 104.551 33.3789C104.316 33.1576 104.29 32.9102 104.473 32.6367L106.465 29.6875C106.751 29.2708 107.077 29.2448 107.441 29.6094C107.819 29.974 108.327 30.332 108.965 30.6836C109.616 31.0221 110.423 31.1914 111.387 31.1914C112.246 31.1914 112.949 31.0482 113.496 30.7617C114.056 30.4622 114.336 30.0326 114.336 29.4727C114.336 29.082 114.212 28.763 113.965 28.5156C113.717 28.2682 113.281 28.0143 112.656 27.7539C112.031 27.4935 111.159 27.1615 110.039 26.7578C108.385 26.1589 107.135 25.4362 106.289 24.5898C105.443 23.7435 105.02 22.5065 105.02 20.8789C105.02 19.3815 105.43 18.1641 106.25 17.2266C107.083 16.2891 108.145 15.6055 109.434 15.1758C110.736 14.7331 112.09 14.5117 113.496 14.5117C115.28 14.5117 116.53 14.681 117.246 15.0195C117.975 15.3451 118.444 15.599 118.652 15.7812C118.848 15.9505 118.984 16.1458 119.062 16.3672C119.232 16.875 119.362 17.5456 119.453 18.3789C119.505 18.8607 119.382 19.1797 119.082 19.3359C118.926 19.4271 118.678 19.5247 118.34 19.6289C118.001 19.7331 117.663 19.8242 117.324 19.9023C116.986 19.9805 116.732 20.0195 116.562 20.0195C116.51 20.0195 116.452 20.0065 116.387 19.9805C116.335 19.9414 116.237 19.8568 116.094 19.7266C115.924 19.5573 115.632 19.362 115.215 19.1406C114.811 18.9193 114.251 18.8086 113.535 18.8086C112.832 18.8086 112.24 18.9258 111.758 19.1602C111.289 19.3815 111.055 19.7786 111.055 20.3516C111.055 20.9766 111.354 21.4453 111.953 21.7578C112.565 22.0703 113.568 22.474 114.961 22.9688C116.055 23.3464 117.005 23.763 117.812 24.2188C118.633 24.6615 119.264 25.2474 119.707 25.9766C120.15 26.6927 120.371 27.6628 120.371 28.8867C120.371 30.4753 119.935 31.7578 119.062 32.7344C118.203 33.6979 117.096 34.401 115.742 34.8438C114.401 35.2734 112.995 35.4883 111.523 35.4883ZM131.328 35.4883C126.979 35.4883 124.805 33.2292 124.805 28.7109V19.5508H122.598C122.207 19.5508 121.934 19.4727 121.777 19.3164C121.634 19.1471 121.562 18.8672 121.562 18.4766V16.0742C121.562 15.6836 121.634 15.4102 121.777 15.2539C121.934 15.0846 122.207 15 122.598 15H124.805V11.8555C124.805 11.543 124.87 11.3021 125 11.1328C125.547 10.4167 126.348 9.64193 127.402 8.80859C127.585 8.67839 127.747 8.61328 127.891 8.61328C128.047 8.61328 128.203 8.67839 128.359 8.80859C128.919 9.23828 129.388 9.64193 129.766 10.0195C130.156 10.3971 130.488 10.7682 130.762 11.1328C130.892 11.3021 130.957 11.543 130.957 11.8555V15H134.414C134.805 15 135.072 15.0846 135.215 15.2539C135.371 15.4102 135.449 15.6836 135.449 16.0742V18.4766C135.449 18.8672 135.371 19.1471 135.215 19.3164C135.072 19.4727 134.805 19.5508 134.414 19.5508H130.957V27.6367C130.957 29.7201 131.712 30.7617 133.223 30.7617C133.457 30.7617 133.672 30.7422 133.867 30.7031C134.062 30.651 134.232 30.599 134.375 30.5469C134.648 30.4427 134.837 30.4036 134.941 30.4297C135.059 30.4557 135.163 30.599 135.254 30.8594L136.387 33.8867C136.504 34.2122 136.426 34.4466 136.152 34.5898C135.957 34.681 135.482 34.8503 134.727 35.0977C133.984 35.3581 132.852 35.4883 131.328 35.4883ZM144.844 35.4883C142.93 35.4883 141.406 34.9544 140.273 33.8867C139.154 32.806 138.594 31.3216 138.594 29.4336C138.594 28.457 138.77 27.5521 139.121 26.7188C139.486 25.8724 140.111 25.1302 140.996 24.4922C141.895 23.8411 143.145 23.3203 144.746 22.9297C146.361 22.5391 148.418 22.3112 150.918 22.2461C150.918 21.0612 150.618 20.2083 150.02 19.6875C149.434 19.1667 148.548 18.9062 147.363 18.9062C146.296 18.9062 145.423 19.0885 144.746 19.4531C144.069 19.8177 143.646 20.0651 143.477 20.1953C143.294 20.3516 143.073 20.4102 142.812 20.3711C142.461 20.319 142.083 20.2279 141.68 20.0977C141.289 19.9674 140.866 19.8177 140.41 19.6484C140.345 19.6224 140.273 19.5833 140.195 19.5312C140.117 19.4661 140.072 19.375 140.059 19.2578C140.059 19.1927 140.065 19.1146 140.078 19.0234C140.091 18.9193 140.124 18.737 140.176 18.4766C140.228 18.2161 140.306 17.8971 140.41 17.5195C140.514 17.1289 140.612 16.8294 140.703 16.6211C140.82 16.3997 141.016 16.1914 141.289 15.9961C141.51 15.8138 142.181 15.5208 143.301 15.1172C144.421 14.7135 146.042 14.5117 148.164 14.5117C154.01 14.5117 156.934 17.3568 156.934 23.0469V34.1016C156.934 34.349 156.862 34.5638 156.719 34.7461C156.589 34.9154 156.361 35 156.035 35H153.105C152.897 35 152.708 34.974 152.539 34.9219C152.383 34.8568 152.233 34.7396 152.09 34.5703L150.879 33.0078H150.742C150.143 33.8802 149.336 34.5117 148.32 34.9023C147.318 35.293 146.159 35.4883 144.844 35.4883ZM146.992 30.957C148.19 30.957 149.095 30.651 149.707 30.0391C150.319 29.4271 150.71 28.7956 150.879 28.1445V25.9766C149.069 25.9766 147.708 26.1198 146.797 26.4062C145.898 26.6797 145.299 27.0443 145 27.5C144.701 27.9427 144.551 28.4245 144.551 28.9453C144.551 29.7005 144.785 30.2279 145.254 30.5273C145.723 30.8138 146.302 30.957 146.992 30.957Z" fill="#505050"/>
<path d="M169.16 33.457C168.118 31.8164 167.096 29.9805 166.094 27.9492C165.104 25.9049 164.206 23.8086 163.398 21.6602C162.591 19.4987 161.947 17.4219 161.465 15.4297C160.983 13.4245 160.742 11.6341 160.742 10.0586C160.742 9.72005 160.814 9.45312 160.957 9.25781C161.257 8.84115 161.621 8.41146 162.051 7.96875C162.493 7.51302 163.014 7.03776 163.613 6.54297C163.809 6.38672 163.991 6.30859 164.16 6.30859C164.329 6.30859 164.499 6.38672 164.668 6.54297C165.28 7.03776 165.801 7.51302 166.23 7.96875C166.66 8.41146 167.025 8.84115 167.324 9.25781C167.467 9.45312 167.539 9.73958 167.539 10.1172V10.0391C167.539 11.1458 167.689 12.4805 167.988 14.043C168.301 15.5924 168.724 17.2266 169.258 18.9453C169.805 20.651 170.423 22.3112 171.113 23.9258C171.816 25.5273 172.565 26.9271 173.359 28.125H173.477C174.349 26.9271 175.137 25.5339 175.84 23.9453C176.556 22.3438 177.168 20.6901 177.676 18.9844C178.197 17.2786 178.594 15.651 178.867 14.1016C179.154 12.5391 179.297 11.1914 179.297 10.0586V10.1172C179.297 9.73958 179.362 9.45312 179.492 9.25781C180.117 8.39844 180.977 7.49349 182.07 6.54297C182.279 6.38672 182.461 6.30859 182.617 6.30859C182.76 6.30859 182.93 6.38672 183.125 6.54297C183.711 7.03776 184.212 7.51302 184.629 7.96875C185.046 8.41146 185.404 8.84115 185.703 9.25781C185.833 9.46615 185.898 9.74609 185.898 10.0977C185.898 11.2826 185.729 12.6562 185.391 14.2188C185.065 15.7682 184.616 17.4089 184.043 19.1406C183.47 20.8724 182.819 22.6042 182.09 24.3359C181.361 26.0677 180.592 27.7214 179.785 29.2969C178.978 30.8594 178.171 32.2461 177.363 33.457C176.686 34.4857 175.762 35 174.59 35H171.895C170.723 35 169.811 34.4857 169.16 33.457ZM160.742 10.0391V10.0586V10.1172V10.0391ZM185.898 10.0586V10.1172V10.0977V10.0586ZM188.809 8.4375C188.809 8.26823 188.861 8.11849 188.965 7.98828C189.069 7.85807 189.206 7.6888 189.375 7.48047C189.74 7.0638 190.163 6.6276 190.645 6.17188C191.126 5.70312 191.615 5.25391 192.109 4.82422C192.422 4.57682 192.656 4.45312 192.812 4.45312C192.969 4.45312 193.21 4.57682 193.535 4.82422C194.59 5.73568 195.488 6.62109 196.23 7.48047C196.4 7.67578 196.536 7.84505 196.641 7.98828C196.758 8.11849 196.816 8.26823 196.816 8.4375C196.816 8.60677 196.758 8.75651 196.641 8.88672C196.536 9.01693 196.393 9.19271 196.211 9.41406C195.859 9.81771 195.449 10.2539 194.98 10.7227C194.512 11.1784 194.03 11.6146 193.535 12.0312C193.353 12.1875 193.21 12.2917 193.105 12.3438C193.001 12.3828 192.904 12.4023 192.812 12.4023C192.721 12.4023 192.624 12.3828 192.52 12.3438C192.428 12.2917 192.279 12.1875 192.07 12.0312C191.549 11.6146 191.061 11.1784 190.605 10.7227C190.15 10.2539 189.74 9.80469 189.375 9.375C189.206 9.16667 189.069 9.00391 188.965 8.88672C188.861 8.75651 188.809 8.60677 188.809 8.4375ZM195.879 33.9648C195.879 34.3555 195.794 34.6289 195.625 34.7852C195.469 34.9284 195.195 35 194.805 35H190.781C190.391 35 190.111 34.9284 189.941 34.7852C189.785 34.6289 189.707 34.3555 189.707 33.9648V16.0352C189.707 15.6445 189.785 15.3776 189.941 15.2344C190.111 15.0781 190.391 15 190.781 15H194.805C195.195 15 195.469 15.0781 195.625 15.2344C195.794 15.3776 195.879 15.6445 195.879 16.0352V33.9648ZM209.102 35.4883C204.753 35.4883 202.578 33.2292 202.578 28.7109V19.5508H200.371C199.98 19.5508 199.707 19.4727 199.551 19.3164C199.408 19.1471 199.336 18.8672 199.336 18.4766V16.0742C199.336 15.6836 199.408 15.4102 199.551 15.2539C199.707 15.0846 199.98 15 200.371 15H202.578V11.8555C202.578 11.543 202.643 11.3021 202.773 11.1328C203.32 10.4167 204.121 9.64193 205.176 8.80859C205.358 8.67839 205.521 8.61328 205.664 8.61328C205.82 8.61328 205.977 8.67839 206.133 8.80859C206.693 9.23828 207.161 9.64193 207.539 10.0195C207.93 10.3971 208.262 10.7682 208.535 11.1328C208.665 11.3021 208.73 11.543 208.73 11.8555V15H212.188C212.578 15 212.845 15.0846 212.988 15.2539C213.145 15.4102 213.223 15.6836 213.223 16.0742V18.4766C213.223 18.8672 213.145 19.1471 212.988 19.3164C212.845 19.4727 212.578 19.5508 212.188 19.5508H208.73V27.6367C208.73 29.7201 209.486 30.7617 210.996 30.7617C211.23 30.7617 211.445 30.7422 211.641 30.7031C211.836 30.651 212.005 30.599 212.148 30.5469C212.422 30.4427 212.611 30.4036 212.715 30.4297C212.832 30.4557 212.936 30.599 213.027 30.8594L214.16 33.8867C214.277 34.2122 214.199 34.4466 213.926 34.5898C213.73 34.681 213.255 34.8503 212.5 35.0977C211.758 35.3581 210.625 35.4883 209.102 35.4883ZM222.617 35.4883C220.703 35.4883 219.18 34.9544 218.047 33.8867C216.927 32.806 216.367 31.3216 216.367 29.4336C216.367 28.457 216.543 27.5521 216.895 26.7188C217.259 25.8724 217.884 25.1302 218.77 24.4922C219.668 23.8411 220.918 23.3203 222.52 22.9297C224.134 22.5391 226.191 22.3112 228.691 22.2461C228.691 21.0612 228.392 20.2083 227.793 19.6875C227.207 19.1667 226.322 18.9062 225.137 18.9062C224.069 18.9062 223.197 19.0885 222.52 19.4531C221.842 19.8177 221.419 20.0651 221.25 20.1953C221.068 20.3516 220.846 20.4102 220.586 20.3711C220.234 20.319 219.857 20.2279 219.453 20.0977C219.062 19.9674 218.639 19.8177 218.184 19.6484C218.118 19.6224 218.047 19.5833 217.969 19.5312C217.891 19.4661 217.845 19.375 217.832 19.2578C217.832 19.1927 217.839 19.1146 217.852 19.0234C217.865 18.9193 217.897 18.737 217.949 18.4766C218.001 18.2161 218.079 17.8971 218.184 17.5195C218.288 17.1289 218.385 16.8294 218.477 16.6211C218.594 16.3997 218.789 16.1914 219.062 15.9961C219.284 15.8138 219.954 15.5208 221.074 15.1172C222.194 14.7135 223.815 14.5117 225.938 14.5117C231.784 14.5117 234.707 17.3568 234.707 23.0469V34.1016C234.707 34.349 234.635 34.5638 234.492 34.7461C234.362 34.9154 234.134 35 233.809 35H230.879C230.671 35 230.482 34.974 230.312 34.9219C230.156 34.8568 230.007 34.7396 229.863 34.5703L228.652 33.0078H228.516C227.917 33.8802 227.109 34.5117 226.094 34.9023C225.091 35.293 223.932 35.4883 222.617 35.4883ZM224.766 30.957C225.964 30.957 226.868 30.651 227.48 30.0391C228.092 29.4271 228.483 28.7956 228.652 28.1445V25.9766C226.842 25.9766 225.482 26.1198 224.57 26.4062C223.672 26.6797 223.073 27.0443 222.773 27.5C222.474 27.9427 222.324 28.4245 222.324 28.9453C222.324 29.7005 222.559 30.2279 223.027 30.5273C223.496 30.8138 224.076 30.957 224.766 30.957ZM242.344 35.4102C242.07 35.5273 241.875 35.5859 241.758 35.5859C241.641 35.5859 241.517 35.5404 241.387 35.4492C241.087 35.2409 240.742 34.7331 240.352 33.9258C239.974 33.1055 239.785 31.849 239.785 30.1562V7.53906C239.785 7.22656 239.85 6.98568 239.98 6.81641C240.527 6.10026 241.328 5.32552 242.383 4.49219C242.565 4.36198 242.728 4.29688 242.871 4.29688C243.04 4.29688 243.203 4.36198 243.359 4.49219C243.919 4.92188 244.388 5.32552 244.766 5.70312C245.156 6.08073 245.488 6.45182 245.762 6.81641C245.892 6.98568 245.957 7.22656 245.957 7.53906V28.9648C245.957 29.8242 246.029 30.5599 246.172 31.1719C246.315 31.7708 246.484 32.2526 246.68 32.6172C246.901 33.0469 246.816 33.3529 246.426 33.5352L242.344 35.4102Z" fill="#FFA953"/>
</svg>
